<svg width="25" height="24" viewBox="0 0 25 24" fill="none" xmlns="http://www.w3.org/2000/svg">
<g clip-path="url(#clip0_23_1065)">
<g clip-path="url(#clip1_23_1065)">
<path d="M22.2663 2.36964C21.9329 1.97097 21.3663 1.87131 20.9329 2.17031L18.9996 3.49921C18.0996 2.53576 16.8329 2.0042 15.4663 2.0042C12.7663 2.0042 10.5329 4.19688 10.5329 6.92113C10.5329 7.3198 10.5663 7.68524 10.6663 8.05069C8.33294 7.55235 6.93294 5.85801 6.3996 2.80154C6.33294 2.40287 6.03294 2.10386 5.63294 2.0042C5.26627 1.90453 4.86627 2.07064 4.63294 2.36964C4.56627 2.43609 -0.933731 10.0773 7.03294 16.5557C6.26627 18.1836 3.96627 19.5789 3.06627 20.044C2.63294 20.2434 2.43294 20.7085 2.53294 21.1736C2.63294 21.6387 3.03294 21.9377 3.4996 21.9377H5.23294C15.3663 21.9377 19.9663 16.9211 20.0663 5.69189L22.1663 3.69854C22.5663 3.36632 22.5996 2.76831 22.2663 2.36964Z" fill="white"/>
</g>
</g>
<defs>
<clipPath id="clip0_23_1065">
<rect width="20" height="20" fill="white" transform="translate(2.5 2)"/>
</clipPath>
<clipPath id="clip1_23_1065">
<rect width="20" height="19.9667" fill="white" transform="translate(2.5 1.97131)"/>
</clipPath>
</defs>
</svg>
