<svg width="19" height="20" viewBox="0 0 19 20" fill="none" xmlns="http://www.w3.org/2000/svg">
<path d="M18.4992 7.46114C18.4992 6.32124 18.1332 5.25043 17.4345 4.31779C17.7006 3.41969 17.7672 2.27979 17.7006 0.967185C17.6674 0.414508 17.2348 0 16.7025 0C16.4031 0 13.8744 0.0345423 12.4104 1.38169C11.1461 1.1399 9.81525 1.1399 8.51765 1.38169C7.08697 0.0345423 4.55832 0 4.2256 0C3.69325 0 3.26072 0.414508 3.22745 0.967185C3.12763 2.27979 3.22745 3.41969 3.49362 4.31779C2.79492 5.28497 2.42893 6.35579 2.42893 7.46114C2.42893 9.8791 4.2256 12.0553 6.95388 13.0915C6.85407 13.2988 6.78752 13.5406 6.72098 13.7824C3.82634 13.4715 2.4622 10.7427 2.39566 10.639C2.16275 10.1209 1.56386 9.91364 1.06479 10.19C0.565712 10.4318 0.366082 11.0535 0.632255 11.5717C0.698799 11.7444 2.52874 15.4404 6.55462 15.8549V18.9637C6.55462 19.5509 6.98715 20 7.55277 20H13.3753C13.9409 20 14.3735 19.5509 14.3735 18.9637V14.8532C14.3735 14.2314 14.2404 13.6442 14.0075 13.1261C16.7025 12.0553 18.4992 9.91364 18.4992 7.46114Z" fill="white"/>
</svg>
